<svg width="900" height="900" viewBox="0 0 900 900" fill="none" xmlns="http://www.w3.org/2000/svg">
<path d="M89.9902 110.487C89.9902 111.277 91.9777 115.129 106.703 142.884C120.073 168.268 175.451 272.964 180.781 283.138C183.31 287.978 202.281 323.831 222.788 362.648C243.295 401.465 272.746 457.27 288.284 486.605C303.822 515.94 318.728 544.188 321.438 549.324C328.033 561.868 399.22 696.492 407.892 712.888C411.687 720.098 422.527 740.642 431.922 758.618C441.408 776.496 449.448 791.114 449.81 791.015C450.261 790.818 454.327 783.706 458.934 775.014C463.541 766.323 477.995 738.963 491.094 714.271C504.194 689.578 523.707 652.638 534.457 632.291C545.207 611.944 563.817 576.782 575.742 554.262C595.255 517.421 637.082 438.306 649.91 414.009C652.62 408.872 664.635 386.155 676.56 363.636C688.485 341.116 704.836 310.201 712.876 294.99C720.916 279.78 729.769 263.087 732.48 257.951C745.127 234.049 786.231 156.317 797.524 134.982C804.389 121.945 809.99 110.981 809.99 110.586C809.99 110.092 648.013 109.796 449.99 109.796C251.968 109.796 89.9902 110.092 89.9902 110.487ZM762.653 140.908C762.201 142.291 727.24 208.764 711.521 238.197C708.178 244.42 692.46 273.952 676.741 303.88C629.132 393.859 600.133 448.677 583.24 480.679C578.904 488.778 560.204 524.138 541.684 559.201C523.165 594.265 499.135 639.6 488.384 659.947C477.634 680.294 464.625 704.887 459.476 714.567C451.978 728.79 449.99 731.95 449.087 730.864C448.454 730.173 440.776 715.851 431.832 698.961C422.979 682.071 413.042 663.206 409.789 656.984C406.447 650.761 386.934 613.821 366.427 575.004C345.92 536.188 327.039 500.334 324.419 495.494C313.579 474.95 202.643 265.063 162.984 189.899C149.072 163.724 137.508 141.6 137.237 140.81C136.876 139.624 182.407 139.427 449.99 139.427C731.034 139.427 763.195 139.624 762.653 140.908Z" fill="#072D16"/>
<path fill-rule="evenodd" clip-rule="evenodd" d="M473.405 308.621C508.963 308.621 545.203 337.399 552.793 372.245L527.799 384.501L552.789 396.752C545.189 431.603 508.958 460.376 473.396 460.376C433.823 460.376 393.277 433.082 370.009 390.678C363.708 395.704 356.373 402.204 349.532 406.461C351.533 398.819 353.244 391.916 354.615 384.226C353.263 376.432 351.76 369.074 349.532 362.171C356.407 366.447 363.476 373.549 369.7 378.883C392.917 336.161 433.657 308.621 473.405 308.621ZM513.737 340.59C508.456 340.59 504.174 344.871 504.174 350.152C504.174 355.434 508.456 359.715 513.737 359.715C519.019 359.715 523.3 355.434 523.3 350.152C523.304 344.875 519.023 340.59 513.737 340.59ZM500.609 298.309C491.748 295.531 482.593 294.204 473.31 294.204L462.477 278.743C461.704 277.634 460.462 277.079 459.121 277.235C457.779 277.397 456.703 278.231 456.2 279.487L449.335 297.048C441.806 298.812 434.368 301.381 427.109 304.681L411.009 294.739C409.847 294.023 408.496 294.004 407.32 294.687C406.145 295.365 405.49 296.55 405.538 297.906L406.173 316.591C400.408 320.573 394.842 325.039 389.546 329.951L371.208 325.295C369.895 324.968 368.596 325.342 367.681 326.348C366.761 327.343 366.496 328.675 366.941 329.955L373.161 347.644C370.601 350.863 368.136 354.206 365.789 357.667C359.066 350.944 346.896 344.994 337.836 342.344C334.043 341.244 330.682 344.634 331.668 348.431L340.363 384.453L331.668 420.476C330.696 424.211 333.986 427.876 337.556 426.838C346.588 424.197 359.052 417.972 365.756 411.269C368.098 414.72 370.549 418.053 373.1 421.267L366.951 438.781C366.5 440.061 366.771 441.388 367.686 442.384C368.591 443.394 369.9 443.778 371.218 443.441L389.338 438.837C394.7 443.825 400.332 448.353 406.173 452.392L405.547 470.825C405.5 472.181 406.154 473.366 407.33 474.044C408.506 474.732 409.862 474.713 411.018 473.992L426.882 464.202C434.249 467.573 441.806 470.18 449.454 471.963L456.205 489.249C456.707 490.5 457.769 491.33 459.125 491.501C460.467 491.657 461.709 491.102 462.482 489.998L473.41 474.789C482.916 474.789 492.123 473.376 500.856 470.607L515.529 481.644C516.605 482.464 517.952 482.611 519.189 482.042C520.412 481.464 521.18 480.35 521.261 478.994L522.347 460.442C529.966 455.493 537.101 449.102 543.278 442.464L561.005 444.569C562.351 444.731 563.589 444.171 564.362 443.057C565.139 441.948 565.243 440.596 564.622 439.387L557.008 424.368C564.618 411.624 568.543 398.183 568.543 384.491C568.543 370.761 564.589 357.283 556.932 344.501L564.618 329.344C565.234 328.14 565.134 326.784 564.357 325.679C563.579 324.565 562.347 324.006 561 324.167L543.055 326.286C536.93 319.743 529.885 313.443 522.356 308.555L521.252 289.738C521.171 288.382 520.403 287.267 519.18 286.689C517.952 286.115 516.596 286.272 515.52 287.078L500.609 298.309Z" fill="#072D16"/>
</svg>
